<svg xmlns="http://www.w3.org/2000/svg" xmlns:xlink="http://www.w3.org/1999/xlink" width="142" height="53" viewBox="0 0 142 53">
  <defs>
    <clipPath id="clip-path">
      <rect id="Rectangle_1999" data-name="Rectangle 1999" width="142" height="53" transform="translate(-0.287)" fill="none"/>
    </clipPath>
    <clipPath id="clip-path-2">
      <path id="Path_1238" data-name="Path 1238" d="M16.931-53H141.185a7.931,7.931,0,0,1,7.931,7.931V-8.057a7.931,7.931,0,0,1-7.931,7.931H16.931A7.931,7.931,0,0,1,9-8.057V-45.069A7.931,7.931,0,0,1,16.931-53Z" transform="translate(-9 53)" fill="none" clip-rule="evenodd"/>
    </clipPath>
    <clipPath id="clip-path-3">
      <path id="Path_1237" data-name="Path 1237" d="M1,18.311H162.266V-61H1Z" transform="translate(-1 61)" fill="none"/>
    </clipPath>
    <clipPath id="clip-path-4">
      <rect id="Rectangle_1998" data-name="Rectangle 1998" width="168" height="81" transform="translate(-0.287 0)" fill="none"/>
    </clipPath>
    <clipPath id="clip-path-6">
      <path id="Path_1233" data-name="Path 1233" d="M9-.126H149.116V-53H9Z" transform="translate(-9 53)" fill="none"/>
    </clipPath>
    <clipPath id="clip-path-8">
      <path id="Path_1241" data-name="Path 1241" d="M16.931-53H61.874V-.126H16.931A7.931,7.931,0,0,1,9-8.057V-45.069A7.931,7.931,0,0,1,16.931-53Z" transform="translate(-9 53)" fill="none" clip-rule="evenodd"/>
    </clipPath>
    <clipPath id="clip-path-10">
      <path id="Path_1244" data-name="Path 1244" d="M29.619-47l.6,1.94h1.94l-1.57,1.2.6,1.94-1.57-1.2-1.569,1.2.6-1.94-1.57-1.2h1.94Z" transform="translate(-27.078 47)" fill="none"/>
    </clipPath>
    <clipPath id="clip-path-12">
      <path id="Path_1247" data-name="Path 1247" d="M29.619-22.843l.6,1.941h1.94l-1.57,1.2.6,1.94-1.57-1.2-1.569,1.2.6-1.94-1.57-1.2h1.94Z" transform="translate(-27.078 22.843)" fill="none"/>
    </clipPath>
    <clipPath id="clip-path-14">
      <path id="Path_1250" data-name="Path 1250" d="M35.658-44.8l.6,1.94H38.2l-1.57,1.2.6,1.94-1.57-1.2-1.57,1.2.6-1.94-1.57-1.2h1.941Z" transform="translate(-33.118 44.804)" fill="none"/>
    </clipPath>
    <clipPath id="clip-path-16">
      <path id="Path_1253" data-name="Path 1253" d="M40.54-29l.6,1.941H43.08l-1.57,1.2.6,1.94-1.57-1.2-1.57,1.2.6-1.94L38-27.059h1.941Z" transform="translate(-38 29)" fill="none"/>
    </clipPath>
    <clipPath id="clip-path-18">
      <path id="Path_1256" data-name="Path 1256" d="M41.7-34.922l.6,1.94h1.941l-1.57,1.2.6,1.941-1.57-1.2-1.57,1.2.6-1.941-1.57-1.2H41.1Z" transform="translate(-39.157 34.922)" fill="none"/>
    </clipPath>
    <clipPath id="clip-path-20">
      <path id="Path_1259" data-name="Path 1259" d="M17.54-34.922l.6,1.94h1.94l-1.57,1.2.6,1.941-1.57-1.2-1.57,1.2.6-1.941L15-32.981h1.941Z" transform="translate(-15 34.922)" fill="none"/>
    </clipPath>
    <clipPath id="clip-path-22">
      <path id="Path_1262" data-name="Path 1262" d="M18.54-29l.6,1.941h1.94l-1.57,1.2.6,1.94-1.569-1.2-1.57,1.2.6-1.94L16-27.059h1.941Z" transform="translate(-16 29)" fill="none"/>
    </clipPath>
    <clipPath id="clip-path-24">
      <path id="Path_1265" data-name="Path 1265" d="M40.54-41l.6,1.941H43.08l-1.57,1.2.6,1.94-1.57-1.2-1.57,1.2.6-1.94L38-39.059h1.941Z" transform="translate(-38 41)" fill="none"/>
    </clipPath>
    <clipPath id="clip-path-26">
      <path id="Path_1268" data-name="Path 1268" d="M19.04-41l.6,1.941h1.94l-1.57,1.2.6,1.94-1.569-1.2-1.57,1.2.6-1.94-1.57-1.2h1.941Z" transform="translate(-16.5 41)" fill="none"/>
    </clipPath>
    <clipPath id="clip-path-28">
      <path id="Path_1271" data-name="Path 1271" d="M36.756-23.941l.6,1.94H39.3l-1.57,1.2.6,1.94-1.57-1.2-1.57,1.2.6-1.94L34.216-22h1.941Z" transform="translate(-34.216 23.941)" fill="none"/>
    </clipPath>
    <clipPath id="clip-path-30">
      <path id="Path_1274" data-name="Path 1274" d="M23.579-44.8l.6,1.94h1.941l-1.57,1.2.6,1.94-1.57-1.2-1.57,1.2.6-1.94-1.57-1.2h1.94Z" transform="translate(-21.039 44.804)" fill="none"/>
    </clipPath>
    <clipPath id="clip-path-32">
      <path id="Path_1277" data-name="Path 1277" d="M22.481-23.941l.6,1.941h1.941l-1.57,1.2.6,1.94-1.57-1.2-1.57,1.2.6-1.94L19.941-22h1.94Z" transform="translate(-19.941 23.941)" fill="none"/>
    </clipPath>
    <clipPath id="clip-path-34">
      <path id="Path_1280" data-name="Path 1280" d="M56-35.925c0,3.733,2.859,6.075,6.372,6.075a6.809,6.809,0,0,0,5.207-2.289v-4.6H61.9v2.518h2.7v.986a3.672,3.672,0,0,1-2.224.7,3.248,3.248,0,0,1-3.283-3.4,3.248,3.248,0,0,1,3.283-3.4,2.927,2.927,0,0,1,2.489,1.391L67.4-39.271A5.54,5.54,0,0,0,62.372-42C58.859-42,56-39.658,56-35.925Zm13.362,5.864V-41.806H74.3c3.707,0,6.372,2.219,6.372,5.864s-2.665,5.881-6.354,5.881ZM72.4-32.7H74.3a3.122,3.122,0,0,0,3.265-3.24,3.011,3.011,0,0,0-3.248-3.222H72.4Zm9.8,2.641V-41.806h5.9A3.8,3.8,0,0,1,92.184-37.9a3.765,3.765,0,0,1-4.095,3.856H85.23v3.979Zm6.9-7.853a1.315,1.315,0,0,0-1.412-1.338H85.23v2.641h2.453A1.3,1.3,0,0,0,89.1-37.915Zm11.014,7.853-1.977-3.979H96.579v3.979H93.543V-41.806h5.9a3.787,3.787,0,0,1,4.095,3.909,3.559,3.559,0,0,1-2.348,3.522l2.4,4.314Zm.335-7.871a1.356,1.356,0,0,0-1.465-1.321h-2.4v2.641h2.4A1.356,1.356,0,0,0,100.445-37.932Z" transform="translate(-56 42)" fill="none" clip-rule="evenodd"/>
    </clipPath>
    <clipPath id="clip-path-36">
      <path id="Path_1283" data-name="Path 1283" d="M34.442-32.532h-.567V-34.29A3.655,3.655,0,0,0,30.287-38,3.655,3.655,0,0,0,26.7-34.29v1.757h-.567A1.153,1.153,0,0,0,25-31.361v4.687A1.153,1.153,0,0,0,26.133-25.5h8.309a1.153,1.153,0,0,0,1.133-1.172v-4.687A1.153,1.153,0,0,0,34.442-32.532Zm-2.455,0h-3.4V-34.29a1.731,1.731,0,0,1,1.7-1.757,1.731,1.731,0,0,1,1.7,1.757Z" transform="translate(-25 38)" fill="none"/>
    </clipPath>
  </defs>
  <g id="Group_1334" data-name="Group 1334" transform="translate(0.287)">
    <g id="Group_1333" data-name="Group 1333" style="isolation: isolate">
      <g id="Group_1332" data-name="Group 1332" transform="translate(0 0)" clip-path="url(#clip-path)">
        <g id="Group_1299" data-name="Group 1299" transform="translate(0.336 0.178)" clip-path="url(#clip-path-2)">
          <g id="Group_1298" data-name="Group 1298" transform="translate(-10.575 -10.575)" clip-path="url(#clip-path-3)">
            <g id="Group_1297" data-name="Group 1297" transform="translate(-3.762 -3.603)" style="isolation: isolate">
              <g id="Group_1296" data-name="Group 1296" transform="translate(0 0)" clip-path="url(#clip-path-4)">
                <g id="Group_1293" data-name="Group 1293" transform="translate(14.336 14.178)" clip-path="url(#clip-path-2)">
                  <g id="Group_1292" data-name="Group 1292" clip-path="url(#clip-path-6)">
                    <path id="Path_1232" data-name="Path 1232" d="M16.931-53H141.185a7.931,7.931,0,0,1,7.931,7.931V-8.057a7.931,7.931,0,0,1-7.931,7.931H16.931A7.931,7.931,0,0,1,9-8.057V-45.069A7.931,7.931,0,0,1,16.931-53Z" transform="translate(-9 53)" fill="#fff"/>
                  </g>
                </g>
                <g id="Group_1295" data-name="Group 1295" transform="translate(14.336 14.178)" clip-path="url(#clip-path-6)">
                  <g id="Group_1294" data-name="Group 1294">
                    <path id="Path_1235" data-name="Path 1235" d="M7.931,0H132.185a7.931,7.931,0,0,1,7.931,7.931V44.943a7.931,7.931,0,0,1-7.931,7.931H7.931A7.931,7.931,0,0,1,0,44.943V7.931A7.931,7.931,0,0,1,7.931,0Z" fill="none" stroke="#f3f3f3" stroke-width="2"/>
                  </g>
                </g>
              </g>
            </g>
          </g>
        </g>
        <g id="Group_1301" data-name="Group 1301" transform="translate(0.336 0.178)" clip-path="url(#clip-path-8)">
          <g id="Group_1300" data-name="Group 1300" transform="translate(-10.575 -10.575)" clip-path="url(#clip-path-3)">
            <path id="Path_1239" data-name="Path 1239" d="M4-58H70.092V8.092H4Z" transform="translate(-0.034 61.966)" fill="#1f4fdf"/>
          </g>
        </g>
        <g id="Group_1303" data-name="Group 1303" transform="translate(24.233 8.109)" clip-path="url(#clip-path-10)">
          <g id="Group_1302" data-name="Group 1302" transform="translate(-34.472 -18.506)" clip-path="url(#clip-path-3)">
            <path id="Path_1242" data-name="Path 1242" d="M22.078-52h18.3v18.3h-18.3Z" transform="translate(5.784 63.897)" fill="#f7d02e"/>
          </g>
        </g>
        <g id="Group_1305" data-name="Group 1305" transform="translate(24.233 40.041)" clip-path="url(#clip-path-12)">
          <g id="Group_1304" data-name="Group 1304" transform="translate(-34.472 -50.438)" clip-path="url(#clip-path-3)">
            <path id="Path_1245" data-name="Path 1245" d="M22.078-27.843h18.3v18.3h-18.3Z" transform="translate(5.784 71.671)" fill="#f7d02e"/>
          </g>
        </g>
        <g id="Group_1307" data-name="Group 1307" transform="translate(32.216 11.012)" clip-path="url(#clip-path-14)">
          <g id="Group_1306" data-name="Group 1306" transform="translate(-42.455 -21.409)" clip-path="url(#clip-path-3)">
            <path id="Path_1248" data-name="Path 1248" d="M28.118-49.8h18.3v18.3h-18.3Z" transform="translate(7.728 64.603)" fill="#f7d02e"/>
          </g>
        </g>
        <g id="Group_1309" data-name="Group 1309" transform="translate(38.67 31.903)" clip-path="url(#clip-path-16)">
          <g id="Group_1308" data-name="Group 1308" transform="translate(-48.908 -42.299)" clip-path="url(#clip-path-3)">
            <path id="Path_1251" data-name="Path 1251" d="M33-34H51.3v18.3H33Z" transform="translate(9.299 69.69)" fill="#f7d02e"/>
          </g>
        </g>
        <g id="Group_1311" data-name="Group 1311" transform="translate(40.199 24.075)" clip-path="url(#clip-path-18)">
          <g id="Group_1310" data-name="Group 1310" transform="translate(-50.438 -34.472)" clip-path="url(#clip-path-3)">
            <path id="Path_1254" data-name="Path 1254" d="M34.157-39.922h18.3v18.3h-18.3Z" transform="translate(9.671 67.784)" fill="#f7d02e"/>
          </g>
        </g>
        <g id="Group_1313" data-name="Group 1313" transform="translate(8.268 24.075)" clip-path="url(#clip-path-20)">
          <g id="Group_1312" data-name="Group 1312" transform="translate(-18.506 -34.472)" clip-path="url(#clip-path-3)">
            <path id="Path_1257" data-name="Path 1257" d="M10-39.922H28.3v18.3H10Z" transform="translate(1.897 67.784)" fill="#f7d02e"/>
          </g>
        </g>
        <g id="Group_1315" data-name="Group 1315" transform="translate(9.589 31.903)" clip-path="url(#clip-path-22)">
          <g id="Group_1314" data-name="Group 1314" transform="translate(-19.828 -42.299)" clip-path="url(#clip-path-3)">
            <path id="Path_1260" data-name="Path 1260" d="M11-34H29.3v18.3H11Z" transform="translate(2.218 69.69)" fill="#f7d02e"/>
          </g>
        </g>
        <g id="Group_1317" data-name="Group 1317" transform="translate(38.67 16.041)" clip-path="url(#clip-path-24)">
          <g id="Group_1316" data-name="Group 1316" transform="translate(-48.908 -26.437)" clip-path="url(#clip-path-3)">
            <path id="Path_1263" data-name="Path 1263" d="M33-46H51.3v18.3H33Z" transform="translate(9.299 65.828)" fill="#f7d02e"/>
          </g>
        </g>
        <g id="Group_1319" data-name="Group 1319" transform="translate(10.25 16.041)" clip-path="url(#clip-path-26)">
          <g id="Group_1318" data-name="Group 1318" transform="translate(-20.489 -26.437)" clip-path="url(#clip-path-3)">
            <path id="Path_1266" data-name="Path 1266" d="M11.5-46H29.8v18.3H11.5Z" transform="translate(2.379 65.828)" fill="#f7d02e"/>
          </g>
        </g>
        <g id="Group_1321" data-name="Group 1321" transform="translate(33.668 38.59)" clip-path="url(#clip-path-28)">
          <g id="Group_1320" data-name="Group 1320" transform="translate(-43.906 -48.986)" clip-path="url(#clip-path-3)">
            <path id="Path_1269" data-name="Path 1269" d="M29.216-28.941h18.3v18.3h-18.3Z" transform="translate(8.081 71.318)" fill="#f7d02e"/>
          </g>
        </g>
        <g id="Group_1323" data-name="Group 1323" transform="translate(16.25 11.012)" clip-path="url(#clip-path-30)">
          <g id="Group_1322" data-name="Group 1322" transform="translate(-26.489 -21.409)" clip-path="url(#clip-path-3)">
            <path id="Path_1272" data-name="Path 1272" d="M16.039-49.8h18.3v18.3h-18.3Z" transform="translate(3.84 64.603)" fill="#f7d02e"/>
          </g>
        </g>
        <g id="Group_1325" data-name="Group 1325" transform="translate(14.799 38.59)" clip-path="url(#clip-path-32)">
          <g id="Group_1324" data-name="Group 1324" transform="translate(-25.037 -48.986)" clip-path="url(#clip-path-3)">
            <path id="Path_1275" data-name="Path 1275" d="M14.941-28.941h18.3v18.3h-18.3Z" transform="translate(3.487 71.318)" fill="#f7d02e"/>
          </g>
        </g>
        <g id="Group_1327" data-name="Group 1327" transform="translate(62.463 14.719)" clip-path="url(#clip-path-34)">
          <g id="Group_1326" data-name="Group 1326" transform="translate(-72.702 -25.115)" clip-path="url(#clip-path-3)">
            <path id="Path_1278" data-name="Path 1278" d="M51-47h60.805v25.368H51Z" transform="translate(15.092 65.506)" fill="#2b3844"/>
          </g>
        </g>
        <g id="Group_1329" data-name="Group 1329" transform="translate(21.486 20.006)" clip-path="url(#clip-path-36)">
          <g id="Group_1328" data-name="Group 1328" transform="translate(-31.724 -30.403)" clip-path="url(#clip-path-3)">
            <path id="Path_1281" data-name="Path 1281" d="M20-43H43.793v25.716H20Z" transform="translate(5.115 66.793)" fill="#fff"/>
          </g>
        </g>
        <g id="Group_1331" data-name="Group 1331" transform="translate(-10.238 -10.396)" clip-path="url(#clip-path-3)">
          <g id="Group_1330" data-name="Group 1330" transform="translate(73.238 41.397)">
            <text id="COMPLIANT" transform="translate(-0.287 10)" fill="#2b3844" font-size="10" font-family="HelveticaNeue-Medium, Helvetica Neue" font-weight="500" letter-spacing="0.025em"><tspan x="0" y="0">COMPLIANT</tspan></text>
          </g>
        </g>
      </g>
    </g>
  </g>
</svg>
