<svg id="menu" xmlns="http://www.w3.org/2000/svg" width="48" height="48" viewBox="0 0 48 48">
  <g id="Path_1513" data-name="Path 1513" fill="#fff">
    <path d="M 46 47.5 L 2 47.5 C 1.172899961471558 47.5 0.5 46.82709884643555 0.5 46 L 0.5 2 C 0.5 1.172899961471558 1.172899961471558 0.5 2 0.5 L 46 0.5 C 46.82709884643555 0.5 47.5 1.172899961471558 47.5 2 L 47.5 46 C 47.5 46.82709884643555 46.82709884643555 47.5 46 47.5 Z" stroke="none"/>
    <path d="M 2 1 C 1.448600769042969 1 1 1.448600769042969 1 2 L 1 46 C 1 46.55139923095703 1.448600769042969 47 2 47 L 46 47 C 46.55139923095703 47 47 46.55139923095703 47 46 L 47 2 C 47 1.448600769042969 46.55139923095703 1 46 1 L 2 1 M 2 0 L 46 0 C 47.10456848144531 0 48 0.8954315185546875 48 2 L 48 46 C 48 47.10456848144531 47.10456848144531 48 46 48 L 2 48 C 0.8954315185546875 48 0 47.10456848144531 0 46 L 0 2 C 0 0.8954315185546875 0.8954315185546875 0 2 0 Z" stroke="none" fill="#ccc"/>
  </g>
  <g id="Group_1374" data-name="Group 1374" transform="translate(-291 -26)">
    <line id="Line_53" data-name="Line 53" x1="14" transform="translate(300 41)" fill="none" stroke="#04acba" stroke-linecap="round" stroke-width="3"/>
    <line id="Line_54" data-name="Line 54" x1="29.5" transform="translate(300 50)" fill="none" stroke="#04acba" stroke-linecap="round" stroke-width="3"/>
    <line id="Line_55" data-name="Line 55" x1="14" transform="translate(315 59)" fill="none" stroke="#04acba" stroke-linecap="round" stroke-width="3"/>
  </g>
</svg>
