<svg xmlns="http://www.w3.org/2000/svg" viewBox="0 0 112.16 36.97"><g id="fc91433b-43c0-4219-a118-38abe5aa1d37" data-name="Layer 2"><g id="ecc54f49-f2ef-432e-8ef0-a6a1756c9b10" data-name="Layer 1"><path d="M42.42,12h5.8v2.31H45.09V17h2.73V19.3H45.09v4.61H42.42Z"/><path d="M49.56,14.36a1.44,1.44,0,0,1-.43-1,1.42,1.42,0,0,1,.43-1.06,1.68,1.68,0,0,1,2.22,0,1.5,1.5,0,0,1,0,2.1,1.68,1.68,0,0,1-2.22,0Zm-.24,9.55V16H52v8Z"/><path d="M58.85,23.91H54.72L52.9,16h2.63l1.26,6.48L58,16h2.63Z"/><path d="M69.33,20.57H63.7A1.48,1.48,0,0,0,65.31,22a1.21,1.21,0,0,0,1.27-.68h2.61a3.64,3.64,0,0,1-1.39,2.07,4.35,4.35,0,0,1-2.54.71,4,4,0,0,1-4.1-4.13,4,4,0,0,1,1.15-3,4.37,4.37,0,0,1,5.91,0,4.07,4.07,0,0,1,1.14,3A5.53,5.53,0,0,1,69.33,20.57Zm-5.61-1.35H66.8a1.44,1.44,0,0,0-1.54-1.32A1.45,1.45,0,0,0,63.72,19.22Z"/><path d="M78.27,23.91H75.56V20L73.1,12h2.58l1.24,4.86L78.15,12h2.58l-2.46,8Z"/><path d="M85.28,22.66a2.58,2.58,0,0,1-2.55,1.41,3.17,3.17,0,0,1-1.2-.23,2.22,2.22,0,0,1-.94-.76,2.11,2.11,0,0,1-.37-1.26,2.34,2.34,0,0,1,.21-1,1.73,1.73,0,0,1,.56-.68,3.44,3.44,0,0,1,.79-.4,4,4,0,0,1,.9-.23l.91-.15.78-.16a1.21,1.21,0,0,0,.56-.25.52.52,0,0,0,.22-.44.7.7,0,0,0-.29-.6,1.22,1.22,0,0,0-.76-.22,1.13,1.13,0,0,0-.83.28,1,1,0,0,0-.28.79H80.44a2.9,2.9,0,0,1,.21-1.12,2.46,2.46,0,0,1,.57-.83,3.22,3.22,0,0,1,.85-.56,4.56,4.56,0,0,1,1-.32,6.69,6.69,0,0,1,1.12-.09,6.57,6.57,0,0,1,1.11.09,4.06,4.06,0,0,1,1,.3,2.83,2.83,0,0,1,.8.52,2.35,2.35,0,0,1,.53.77,2.66,2.66,0,0,1,.2,1v5.39H85.28Zm-2.17-.58a1,1,0,0,0,.62.18,1.48,1.48,0,0,0,1-.37,1.3,1.3,0,0,0,.4-1v-.48a3,3,0,0,1-.74.26l-.78.19a1.5,1.5,0,0,0-.56.25.57.57,0,0,0-.24.48A.59.59,0,0,0,83.11,22.08Z"/><path d="M92,23.91H89.31V16h2.55v1.48a2.7,2.7,0,0,1,1-1.21,2.52,2.52,0,0,1,1.45-.42,1.65,1.65,0,0,1,.4,0v2.64a2.45,2.45,0,0,0-.83-.14,2,2,0,0,0-1.36.42A1.48,1.48,0,0,0,92,19.94Z"/><path d="M101.13,22.9a2.87,2.87,0,0,1-2.39,1.17,3.28,3.28,0,0,1-2.59-1.13,4.38,4.38,0,0,1-1-3,4.39,4.39,0,0,1,1-3,3.28,3.28,0,0,1,2.59-1.12,2.92,2.92,0,0,1,2.31,1.07V12h2.7V23.91h-2.62Zm-2.89-4.25a1.84,1.84,0,0,0-.45,1.29,1.82,1.82,0,0,0,.45,1.28,1.51,1.51,0,0,0,1.17.5,1.55,1.55,0,0,0,1.18-.5,1.78,1.78,0,0,0,.46-1.28,1.8,1.8,0,0,0-.46-1.29,1.54,1.54,0,0,0-1.18-.49A1.5,1.5,0,0,0,98.24,18.65Z"/><path d="M111.19,23.39a4.34,4.34,0,0,1-2.52.68,4.47,4.47,0,0,1-2.68-.75,2.35,2.35,0,0,1-1-2h2.47a.94.94,0,0,0,.34.78,1.41,1.41,0,0,0,.89.27,1.24,1.24,0,0,0,.72-.18.58.58,0,0,0,.27-.51.55.55,0,0,0-.25-.45,1.82,1.82,0,0,0-.66-.25l-.88-.17a6.48,6.48,0,0,1-1-.22,4.12,4.12,0,0,1-.88-.39,1.82,1.82,0,0,1-.65-.72,2.41,2.41,0,0,1-.26-1.15,2.12,2.12,0,0,1,1-1.82,4.64,4.64,0,0,1,5,.1,2.33,2.33,0,0,1,1,1.93h-2.47a.89.89,0,0,0-.3-.69,1.1,1.1,0,0,0-.76-.27,1.22,1.22,0,0,0-.68.17.5.5,0,0,0-.25.45.47.47,0,0,0,.2.38,1.24,1.24,0,0,0,.52.21l.74.16.84.15a3.55,3.55,0,0,1,.84.26,3.13,3.13,0,0,1,.74.43,1.72,1.72,0,0,1,.52.7,2.57,2.57,0,0,1,.2,1A2.19,2.19,0,0,1,111.19,23.39Z"/><path d="M0,18.83A18.62,18.62,0,0,0,1.13,26a19,19,0,0,0,3.94,6.12c1.69,1.69,4.11,2.45,6.35,3.38a17.54,17.54,0,0,0,6.89,1.31c2.49,0,5.14.61,7.31-.29s4.08-2.86,5.77-4.56,2.47-4,3.4-6.25,1.89-4.34,1.89-6.83a18.51,18.51,0,0,0-1.34-7C34.4,9.53,33.48,7,31.79,5.35a19.62,19.62,0,0,0-6.31-3.84A19.28,19.28,0,0,0,18.31,0c-2.49,0-4.82,1.07-7,2a18.43,18.43,0,0,0-6,3.83A18.85,18.85,0,0,0,1,11.68,18.72,18.72,0,0,0,0,18.83Z"/><path d="M34.62,18.83a16.18,16.18,0,0,0-1.39-6.18,16.34,16.34,0,0,0-3.46-5.28c-1.49-1.49-3.51-2.16-5.48-3a15.2,15.2,0,0,0-6-1.39,15.17,15.17,0,0,0-6,1.41c-2,.82-4.17,1.31-5.66,2.79a16.8,16.8,0,0,0-3.34,5.43,16.43,16.43,0,0,0-1.55,6.2c0,2.18,1.33,4.06,2.12,6a15.54,15.54,0,0,0,3.16,5.27,15.87,15.87,0,0,0,5.11,3.57,15.66,15.66,0,0,0,6.13.75c2.19,0,4.43.53,6.33-.26a16.68,16.68,0,0,0,5.15-3.81A16.17,16.17,0,0,0,33,24.9,15.93,15.93,0,0,0,34.62,18.83Z" style="fill:#fff"/><path d="M16.79,20.54l-2.15,1L3.76,16.22a14.13,14.13,0,0,0-.22,2l9.83,4-2.16,1L3.55,19.41a14.75,14.75,0,0,0,.19,1.89L10,23.81l-2.16,1L4.12,23a15,15,0,0,0,2.23,4.51l12-6,11.88,6A14.67,14.67,0,0,0,32.49,23l-3.66,1.78-2.16-1,6.21-2.52a14.42,14.42,0,0,0,.19-1.88l-7.66,3.73-2.16-1,9.82-4a15.83,15.83,0,0,0-.21-2L22,21.51l-2.16-1,12.84-5.21a14.49,14.49,0,0,0-.58-1.87L18.45,18.71,4.22,14.32c-.1.33-.19.67-.28,1Z"/><path d="M18.45,17.33l4.81-1.85a6,6,0,0,0-10,.24Z"/><path d="M24.17,32.41A14.35,14.35,0,0,0,26.74,31l-8.45-3.62L9.8,30.92a15.2,15.2,0,0,0,2.61,1.47l5.92-2.94Z"/><path d="M29.68,28.28,18.29,23.41,6.87,28.2a14.47,14.47,0,0,0,2,2l9.47-4.7,9.37,4.75A14.18,14.18,0,0,0,29.68,28.28Z"/><path d="M18.29,31.3,14.18,33a14.51,14.51,0,0,0,8.19,0Z"/><path d="M18.45,5.86c4,0,8,2.48,11.49,7l1.59-.61A14.78,14.78,0,0,0,4.71,13l1.65.51C9.81,8.58,14.08,5.86,18.45,5.86Z"/><path d="M18.45,7c-3.92,0-7.79,2.45-11,6.91l2,.6c2.56-3.65,5.72-5.67,9-5.67,2.95,0,6,1.85,8.55,5.19l1.95-.75C25.66,9.19,22,7,18.45,7Z"/><path d="M18.37,9.61c-2.9,0-5.76,1.83-8.13,5.12l1.7.52a7.3,7.3,0,0,1,12.55-.32l1.63-.63C23.73,11.28,21,9.61,18.37,9.61Z"/></g></g></svg>