<svg xmlns="http://www.w3.org/2000/svg" viewBox="0 0 73.19 12.84"><defs><style>.cls-1{fill:#231f20;}</style></defs><title>Asset 2</title><g id="Layer_2" data-name="Layer 2"><g id="Layer_1-2" data-name="Layer 1"><path class="cls-1" d="M7,.61s0,0,0,.05l.13,2.56a11.47,11.47,0,0,1-2,.2c-1.36.25-2.05.44-2.05.55V5.3L6.5,4.71c.08.49.14,1.31.22,2.44-.17.07-1.33.28-3.42.61.08.77.29,2.12.59,4-.3.11-1.31.34-3,.69A30.57,30.57,0,0,1,0,5.11V4q0-2.4.18-2.4a31.09,31.09,0,0,1,6.61-1Z"/><path class="cls-1" d="M10.77.48a0,0,0,0,1,0,0q0,2.39.39,11.3c0,.15-.92.31-2.74.48l0-.06C8,6.45,7.84,2.59,7.84.69a1.11,1.11,0,0,1,.8-.21Z"/><path class="cls-1" d="M17.19.51q2.64.17,2.64.72c0,1.35-.9,4.85-2.71,10.53-.21.42-.86.63-2,.63-.83,0-1.25-.08-1.25-.24q-1.17-6.08-2.17-10c0-.65.93-1.15,2.78-1.48q.55,2.42,1.2,6.06h.16c.45-1.87.9-3.93,1.33-6.21Z"/><path class="cls-1" d="M26.93.46v2.6a12.05,12.05,0,0,1-2.05.35c-1.07.22-1.62.43-1.62.64a2.19,2.19,0,0,0,0,.46v.76h.11l3.44-.63,0,.07c0,.56.05,1.36.13,2.38-.13.06-1.12.24-3,.54a.51.51,0,0,0-.58.53,4,4,0,0,1,.05.53V9h.13c.13,0,1.39-.24,3.78-.73a15.94,15.94,0,0,1,.27,2.57v.18q0,.12-6.05,1.15a.37.37,0,0,1-.27.07,14,14,0,0,1-.74-5.51V6.42q0-4.74.42-4.74A29.69,29.69,0,0,1,26.9.4Z"/><path class="cls-1" d="M41.38,1.39q-2.72,5.79-5.75,11.33a3.64,3.64,0,0,1-.61.12,2.31,2.31,0,0,1-2-1.51v-.06c1-1.81,1.83-3.33,2.42-4.55A6.93,6.93,0,0,1,34.05,5.2c-.48-.7-1.09-1.65-1.81-2.83C32.83,1.15,33.57.54,34.42.54A22.09,22.09,0,0,0,37,4.05a27.77,27.77,0,0,0,2-4A2.83,2.83,0,0,1,41.38,1.39Z"/><path class="cls-1" d="M48.5,11.28a5.24,5.24,0,0,1-2.23,1c-.28,0-.65-1.12-1.1-3.34A7.44,7.44,0,0,0,43,9.19a20.64,20.64,0,0,1-1,3.25.57.57,0,0,0-.16,0c-.43,0-1.12-.43-2-1.29a36.6,36.6,0,0,1,2.83-9,2.21,2.21,0,0,1,1.47-1.08A6.94,6.94,0,0,1,46,.61C46.08.83,46.91,4.39,48.5,11.28ZM44.34,4.39h-.16a6,6,0,0,0-.69,2.25h.13c.16,0,.56,0,1.18-.13Z"/><path class="cls-1" d="M56.7,2.18A5.15,5.15,0,0,1,57,3.5c0,1.4-.9,2.52-2.68,3.33a21.81,21.81,0,0,1,3.09,2.5.46.46,0,0,1,.1.23c-.61,1.24-1.19,1.87-1.73,1.87l-3.71-3v.3a27.69,27.69,0,0,0,.22,3.12c-.3.08-1.23.28-2.78.55l0-.07c-.14-3.34-.22-5.68-.22-7,0-2.41.16-3.61.46-3.61A6.85,6.85,0,0,1,53.77.51,3,3,0,0,1,56.7,2.18Zm-4.87,3A2.18,2.18,0,0,0,54.1,3.81V3.57c0-.43-.31-.64-1-.64q-1.26,0-1.26.57a9.55,9.55,0,0,0-.05,1Z"/><path class="cls-1" d="M60.43.54c2.92,0,4.85,1.22,5.81,3.65a9.67,9.67,0,0,1,.37,2.52v.12q0,3.63-4.5,5.14a11.77,11.77,0,0,1-3,.45H59s-.07,0-.07-.06c0-2.52-.14-5.22-.25-8.12H58.3a1.11,1.11,0,0,1-.46-.09c-.05-1-.06-1.75-.06-2.37V1.2L57.73.91A7.48,7.48,0,0,1,60.3.54Zm1.12,3.85c0,.68.07,2.14.21,4.35a2,2,0,0,0,1.86-2.1V6.32a2.06,2.06,0,0,0-1.39-2.08,2.57,2.57,0,0,0-.77-.19Z"/><path class="cls-1" d="M73.19.64a10.71,10.71,0,0,1-.34,2.53H71.9c-.91,0-1.36.22-1.36.67V4c0,.29.55.89,1.65,1.84a3.72,3.72,0,0,1,.93,2.53c0,2-1.38,3.28-4.14,4a2.15,2.15,0,0,1-.6.06c-.27-.21-.45-1.09-.51-2.62V9.62a5.33,5.33,0,0,1,1.25-.32c.78-.37,1.17-.75,1.17-1.18S69.7,6.87,68.53,6a3,3,0,0,1-1-2.08c0-1.87,1.34-3,4-3.34.25,0,.69,0,1.28-.07A1.35,1.35,0,0,1,73.19.64Z"/></g></g></svg>