<svg xmlns="http://www.w3.org/2000/svg" viewBox="0 0 58.18 57.16"><defs><style>.cls-1{fill:#fff;}</style></defs><title>Asset 1</title><g id="Layer_2" data-name="Layer 2"><g id="Layer_1-2" data-name="Layer 1"><path class="cls-1" d="M1.85,15.16s0,0,0,0L3.8,16a9.22,9.22,0,0,1-.61,1.55c-.34,1.07-.46,1.64-.38,1.68l1,.49L4.63,17c.39.13,1,.39,1.85.76,0,.15-.3,1.06-.84,2.69.58.23,1.63.59,3.11,1.08,0,.26-.25,1.07-.63,2.43a25.37,25.37,0,0,1-5.64-2.12l-.81-.43c-1.16-.6-1.71-1-1.67-1a25.13,25.13,0,0,1,1.79-5.12Z"/><path class="cls-1" d="M4.52,11.54h0q1.5,1.2,7.34,5.5c.09.07-.27.73-1.08,2h-.06Q5,15,3.16,13.5a.9.9,0,0,1,.28-.61Z"/><path class="cls-1" d="M9.4,6.93c1.17-.83,1.84-1.13,2-.9.7.84,1.93,3.51,3.72,8,.08.36-.23.83-.94,1.42-.52.42-.82.59-.91.49q-3.86-3.22-6.5-5.17c-.34-.41,0-1.2,1-2.37,1.06.83,2.35,1.89,3.87,3.2l.1-.08c-.68-1.41-1.46-2.94-2.36-4.59Z"/><path class="cls-1" d="M18,2.12l.84,1.93A8.35,8.35,0,0,1,17.46,5c-.73.52-1.07.85-1,1a1.92,1.92,0,0,0,.11.37l.25.56.08,0,2.36-1.58,0,0c.18.42.47,1,.86,1.74a24.15,24.15,0,0,1-2,1.36.41.41,0,0,0-.26.58,2.14,2.14,0,0,1,.21.38l.11.26.1,0c.09,0,1-.63,2.58-1.77a12.37,12.37,0,0,1,1,1.83l.06.13a47.39,47.39,0,0,1-4.14,2.82c0,.05-.07.09-.18.13a11.47,11.47,0,0,1-2.33-3.86l-.11-.26C14.19,6.26,13.78,5,14,5a24.19,24.19,0,0,1,4-2.87Z"/><path class="cls-1" d="M32.68,1.16q-2.28,4.66-4.82,9.13a2,2,0,0,1-.49.08,1.87,1.87,0,0,1-1.61-1.25v0c.86-1.45,1.53-2.68,2-3.66a5.68,5.68,0,0,1-1.11-1.25c-.38-.58-.87-1.35-1.43-2.33C25.74.85,26.35.37,27,.38a17.4,17.4,0,0,0,2,2.88A22,22,0,0,0,30.74,0,2.28,2.28,0,0,1,32.68,1.16Z"/><path class="cls-1" d="M37.81,10.69a4.28,4.28,0,0,1-1.94.34c-.23-.06-.3-1-.22-2.86A5.77,5.77,0,0,0,33.84,8a16.63,16.63,0,0,1-1.4,2.37H32.3C32,10.24,31.5,9.76,31,8.9a30.17,30.17,0,0,1,4-6.57,1.84,1.84,0,0,1,1.38-.57,5.69,5.69,0,0,1,1.57,0C38,2,37.92,4.94,37.81,10.69ZM35.89,4.44l-.13,0a5.2,5.2,0,0,0-1,1.65l.1,0a8.19,8.19,0,0,0,1,.14Z"/><path class="cls-1" d="M47.06,7.85a4.15,4.15,0,0,1-.36,1c-.59,1-1.68,1.36-3.26,1.18a17.33,17.33,0,0,1,1.08,3,.35.35,0,0,1,0,.2c-1,.61-1.62.8-2,.57l-1.29-3.66-.13.21a21,21,0,0,0-1.17,2.26c-.24-.07-1-.33-2.16-.8v-.06c1.32-2.38,2.25-4,2.82-4.95,1-1.68,1.64-2.44,1.85-2.32a5.61,5.61,0,0,1,3.32.91A2.4,2.4,0,0,1,47.06,7.85Zm-4.63,0a1.78,1.78,0,0,0,2.15,0l.1-.17c.18-.29,0-.57-.4-.84s-1-.41-1.12-.14a6.81,6.81,0,0,0-.46.69Z"/><path class="cls-1" d="M51.58,10.07a4.59,4.59,0,0,1,.86,5.51,7.45,7.45,0,0,1-1.34,1.56l-.08.07c-1.48,1.29-3.34,1.28-5.55,0a9.6,9.6,0,0,1-1.89-1.62l0,0s0,0,0-.07q2.27-2.06,4.84-4.49l-.21-.23A.89.89,0,0,1,48,10.4c.56-.53,1-1,1.42-1.3l.35-.31.15-.18A6.29,6.29,0,0,1,51.51,10Zm-1.76,2.74c-.42.36-1.28,1.18-2.55,2.44a1.62,1.62,0,0,0,2.27,0l.2-.18a1.65,1.65,0,0,0,.53-2,2.39,2.39,0,0,0-.29-.57Z"/><path class="cls-1" d="M58.18,20.33a8.71,8.71,0,0,1-2,.65l-.34-.69c-.32-.67-.64-.92-1-.76l-.13.06c-.21.1-.46.71-.76,1.86A3,3,0,0,1,52.48,23c-1.44.69-2.89.15-4.37-1.64a1.27,1.27,0,0,1-.25-.41c0-.27.64-.71,1.74-1.3l.13-.06a4.12,4.12,0,0,1,.67.8c.55.44,1,.59,1.28.44s.71-.88.9-2a2.55,2.55,0,0,1,1.18-1.46c1.37-.66,2.65-.06,3.87,1.78.09.18.26.49.5.91A1,1,0,0,1,58.18,20.33Z"/><path class="cls-1" d="M6.89,33.46A4.35,4.35,0,0,1,5.8,33.4l0-.43c0-.41-.16-.6-.36-.59H5.34c-.13,0-.38.28-.74.81a1.6,1.6,0,0,1-1,.5c-.84.07-1.46-.5-1.86-1.72a.76.76,0,0,1-.05-.27c.07-.12.44-.23,1.11-.31h.07a2.87,2.87,0,0,1,.18.55c.19.34.38.5.56.49s.53-.31.84-.87A1.3,1.3,0,0,1,5.25,31c.8-.07,1.33.5,1.59,1.7,0,.11,0,.31.07.57A.5.5,0,0,1,6.89,33.46Z"/><path class="cls-1" d="M7.26,36.31l-1,.21A3.9,3.9,0,0,1,6,35.8c-.17-.37-.29-.55-.37-.54l-.17,0-.28.07v0l.51,1.21h0l-.86.24a9.89,9.89,0,0,1-.44-1,.19.19,0,0,0-.25-.16L4,35.71l-.13,0v0s.2.49.58,1.33a7.11,7.11,0,0,1-.92.31H3.44s-.33-.7-.92-2.12c0,0,0,0,0-.09a5.08,5.08,0,0,1,1.95-.72l.13,0q1.74-.39,1.77-.24a11.74,11.74,0,0,1,1,2.07Z"/><path class="cls-1" d="M9,41.74s-.05,0,0,0a18.12,18.12,0,0,1-4,.37,2,2,0,0,1-.44-.7c0-.08.1-.21.4-.39s.79-.62,1.13-.86l0-.07a16.27,16.27,0,0,1-2,.06A.58.58,0,0,1,3.85,40a1.35,1.35,0,0,1-.09-.72l3-2.07a1.59,1.59,0,0,1,.73.65c0,.11-.06.22-.33.34a16.14,16.14,0,0,1-1.36.88l0,.08A16.61,16.61,0,0,1,7.82,39a1.07,1.07,0,0,1,.38.42.31.31,0,0,1-.19.46c-.15.15-.64.52-1.45,1.11l0,0A17.12,17.12,0,0,0,9,40.75,1.73,1.73,0,0,1,9,41.74Z"/><path class="cls-1" d="M11.31,44.27v0C10.83,44.65,9.73,45.55,8,47c0,0-.3-.21-.77-.71l0,0c1.63-1.44,2.74-2.37,3.31-2.8a.42.42,0,0,1,.24.19Z"/><path class="cls-1" d="M13.38,47.46c-.29.27-.46.4-.5.35l-.65-.56q-1.58,1.84-2,2.25A1.9,1.9,0,0,1,9.47,49l-.13-.13a6.34,6.34,0,0,1,1-1.12c0-.05.37-.44,1-1.16-.43-.36-.68-.57-.74-.64v0l.27-.26c.16-.15.34-.36.57-.62a20.32,20.32,0,0,1,2.28,2A1.48,1.48,0,0,1,13.38,47.46Z"/><path class="cls-1" d="M17.82,49.93s0,0,0,0l-.48.83a3.83,3.83,0,0,1-.68-.34c-.48-.2-.74-.28-.76-.24l-.27.42,1.21.5c-.07.18-.22.45-.42.83l-1.2-.5c-.13.26-.34.73-.63,1.39-.12,0-.48-.16-1.09-.39A11.75,11.75,0,0,1,14.72,50l.22-.36c.33-.51.51-.75.54-.73a11.32,11.32,0,0,1,2.29,1Z"/><path class="cls-1" d="M20.56,51.17c.48.2.68.65.63,1.35a3.53,3.53,0,0,1-.22.74A2.82,2.82,0,0,1,18.72,55a1.62,1.62,0,0,1-.72-.1l-.18-.07A1.51,1.51,0,0,1,17,53.41a2.24,2.24,0,0,1,.15-.77,3.2,3.2,0,0,1,1.56-1.49,2.19,2.19,0,0,1,1.7,0Zm-2.23,1.77a.73.73,0,0,0,.13.81l.2.08c.28.12.6,0,1-.43a1.06,1.06,0,0,0,.16-.27l0-.1c.17-.4.11-.66-.17-.78s-.85,0-1.29.63Z"/><path class="cls-1" d="M24.65,53a1.78,1.78,0,0,1,0,.51c-.11.51-.54.84-1.26,1a7.83,7.83,0,0,1,.92,1.17s0,.08,0,.09c-.33.41-.59.59-.79.54l-1.1-1.42,0,.11a9.05,9.05,0,0,0-.19,1.16l-1.06,0v0c.24-1.24.41-2.1.52-2.58.21-.89.37-1.31.48-1.29a2.57,2.57,0,0,1,1.59-.08A1.11,1.11,0,0,1,24.65,53Zm-2,.67a.84.84,0,0,0,.95-.29l0-.09c0-.16-.06-.26-.3-.32s-.48,0-.51.1a3.46,3.46,0,0,0-.11.37Z"/><path class="cls-1" d="M30.43,53.29c0,.41,0,.61-.08.61L29.5,54c.18,1.62.27,2.61.28,3a1.86,1.86,0,0,1-.94.19h-.18a5.92,5.92,0,0,1-.14-1.49c0-.05-.06-.56-.14-1.53-.56.07-.88.1-1,.1v-.39a7.46,7.46,0,0,0-.06-.84,20.28,20.28,0,0,1,3-.32A1.17,1.17,0,0,1,30.43,53.29Z"/><path class="cls-1" d="M34.07,52.28c.17,1,.32,2.4.44,4.21l-.74.13-.2.06s0,0,0,0L33.36,55l-.72.13c.07.51.14.94.2,1.29l0,.3s0,0,0,0a2.69,2.69,0,0,1-.94.07c-.32-1.31-.65-2.63-1-3.94a1.44,1.44,0,0,1,1-.43c.09,0,.14,0,.16.11.11.35.25.89.42,1.63l.76-.13-.3-1.77s.12-.07.36-.11C33.79,52.15,34.05,52.17,34.07,52.28Z"/><path class="cls-1" d="M36.74,51.22l.31.93a6.63,6.63,0,0,1-.69.37c-.35.2-.52.34-.5.42a1.36,1.36,0,0,0,0,.17l.09.27,0,0,1.15-.63,0,0c.06.2.18.48.33.83,0,0-.37.22-1,.55a.18.18,0,0,0-.14.25l.08.19,0,.12h0s.47-.25,1.26-.72a6.59,6.59,0,0,1,.41.89l0,.06s-.67.41-2,1.13a.17.17,0,0,1-.09.06,5.23,5.23,0,0,1-.91-1.87l0-.13c-.37-1.12-.51-1.7-.41-1.73a10.07,10.07,0,0,1,1.95-1.16Z"/><path class="cls-1" d="M42.36,49.2s.09,0,.2.12c-.07.16-.18.48-.34,1-.46-.14-.72-.19-.8-.14l-.07.05c-.32.2-.29.7.11,1.48.27.43.58.58.93.43l0,0a1.24,1.24,0,0,0,.44-.63h0l.78.61a1.72,1.72,0,0,1-.78,1.05l-.08,0A1.37,1.37,0,0,1,41.11,53a2.85,2.85,0,0,1-.53-.62,2.72,2.72,0,0,1-.4-2.57,1.7,1.7,0,0,1,.61-.64A1.34,1.34,0,0,1,42.36,49.2Z"/><path class="cls-1" d="M44.85,45.94c.68.93,1.21,1.6,1.58,2a9.5,9.5,0,0,0,1.08,1,1.25,1.25,0,0,1-.45.69l-.15.13s-.11,0-.28-.21l0,0A2.15,2.15,0,0,1,46,50.88c-.37.34-.86.3-1.46-.13a3.15,3.15,0,0,1-.38-.35l-.06-.07a8,8,0,0,1-1.35-2.28,1.36,1.36,0,0,1,.4-.56.74.74,0,0,1,.38-.2,10.29,10.29,0,0,0,1.38,2.28c.24.26.43.32.58.19a1.43,1.43,0,0,0,.27-1c-1.16-1.36-1.7-2.07-1.6-2.15a4.42,4.42,0,0,1,.41-.44Z"/><path class="cls-1" d="M46.24,45.06a16.61,16.61,0,0,1,2,1.38l0,0c.1.08.17.1.2.07.54-.81.89-1.32,1-1.51a1,1,0,0,1,.31.18,2.56,2.56,0,0,1,.48.54c-.71,1.1-1.23,1.93-1.55,2.48h0l-.07,0a41.75,41.75,0,0,0-3.5-2.45,10.09,10.09,0,0,1,.6-.87C45.82,44.78,46,44.85,46.24,45.06Z"/><path class="cls-1" d="M49,41.15c.34.21.5.35.47.4l-.39.77c1.46.71,2.35,1.16,2.68,1.37a1.93,1.93,0,0,1-.35.88l-.09.16A6.29,6.29,0,0,1,50,44.05c-.06,0-.52-.26-1.38-.71-.24.51-.38.8-.43.88h0L47.82,44a7.61,7.61,0,0,0-.74-.4,19.8,19.8,0,0,1,1.33-2.69A1.33,1.33,0,0,1,49,41.15Z"/><path class="cls-1" d="M50,37.26c1,.53,1.79.89,2.3,1.1a9.83,9.83,0,0,0,1.43.45,1.27,1.27,0,0,1-.1.81l-.07.19s-.13,0-.35-.06l0,0a2.26,2.26,0,0,1,0,1.38c-.19.47-.65.64-1.37.52a2.88,2.88,0,0,1-.5-.15l-.08,0a7.87,7.87,0,0,1-2.22-1.45,1.3,1.3,0,0,1,.11-.68.85.85,0,0,1,.25-.35,10,10,0,0,0,2.25,1.44c.32.13.52.1.6-.08a1.44,1.44,0,0,0-.19-1c-1.64-.71-2.44-1.11-2.39-1.23a4.24,4.24,0,0,1,.18-.57Z"/><path class="cls-1" d="M51.31,34.25a1.44,1.44,0,0,1,.51,0c.51.11.85.53,1,1.25A7.88,7.88,0,0,1,54,34.57a.18.18,0,0,1,.09,0c.41.32.59.58.55.78l-1.4,1.12.11,0a9.22,9.22,0,0,0,1.16.18c0,.11,0,.47,0,1.06h0c-1.23-.22-2.09-.38-2.58-.49-.88-.2-1.31-.35-1.29-.46a2.64,2.64,0,0,1-.1-1.59A1.11,1.11,0,0,1,51.31,34.25Zm.7,2a.82.82,0,0,0-.31-.94l-.08,0c-.16,0-.27.06-.32.3s0,.48.11.51l.37.1Z"/><path class="cls-1" d="M51,31l1,.07a6.61,6.61,0,0,1,.08.77c.06.41.12.62.2.62a.43.43,0,0,0,.17,0l.28,0v0l-.15-1.31h.92c0,.05.07.43.14,1.12,0,.14.05.22.18.23h.33v0S54,31.9,53.91,31a5.64,5.64,0,0,1,1,0h.06a21.64,21.64,0,0,1,.29,2.29s0,0,0,.1a5.35,5.35,0,0,1-2.08.15H53c-1.18-.08-1.77-.17-1.76-.27A11.79,11.79,0,0,1,50.94,31Z"/><path class="cls-1" d="M45.75,24.53c-.93-2.25-1.85-4.73-3.55-6.42a19.4,19.4,0,0,0-6.3-3.84,19.09,19.09,0,0,0-7.17-1.52c-2.49,0-4.82,1.07-7,2a18.38,18.38,0,0,0-6,3.83,18.85,18.85,0,0,0-4.24,5.88,18.75,18.75,0,0,0-1,7.15,18.62,18.62,0,0,0,1.13,7.12,19,19,0,0,0,3.94,6.12c1.69,1.69,4.1,2.46,6.35,3.39a17.54,17.54,0,0,0,6.89,1.31c2.49,0,5.14.6,7.31-.29s4.08-2.87,5.77-4.56,2.47-4,3.4-6.26,1.89-4.34,1.89-6.83A18.36,18.36,0,0,0,45.75,24.53ZM43.4,37.66a16.19,16.19,0,0,1-3.19,5.4,16.67,16.67,0,0,1-5.15,3.82c-1.9.78-4.15.25-6.33.25a15.66,15.66,0,0,1-6.13-.75,15.72,15.72,0,0,1-5.11-3.57,15.34,15.34,0,0,1-3.16-5.26c-.79-1.91-2.12-3.78-2.12-6a16.43,16.43,0,0,1,1.55-6.2A16.65,16.65,0,0,1,17.1,20c1.49-1.49,3.69-2,5.66-2.79a15.18,15.18,0,0,1,6-1.42,15.42,15.42,0,0,1,6,1.39c2,.82,4,1.5,5.47,3a16.31,16.31,0,0,1,3.47,5.28A16.18,16.18,0,0,1,45,31.58,16.11,16.11,0,0,1,43.4,37.66Z"/><path class="cls-1" d="M27.21,33.29l-2.15,1L14.18,29a14.31,14.31,0,0,0-.22,2l9.83,4-2.16,1L14,32.17a14.42,14.42,0,0,0,.19,1.88l6.2,2.52-2.15,1-3.67-1.79a14.74,14.74,0,0,0,2.23,4.51l12-5.95,11.88,6a14.72,14.72,0,0,0,2.28-4.59l-3.66,1.79-2.16-1,6.21-2.52a14.6,14.6,0,0,0,.19-1.88L35.82,35.9l-2.15-1,9.82-4a16.2,16.2,0,0,0-.21-2L32.4,34.26l-2.16-1,12.84-5.2a17.05,17.05,0,0,0-.58-1.88L28.86,31.46,14.64,27.08c-.1.33-.2.66-.28,1Z"/><path class="cls-1" d="M28.86,30.09l4.81-1.86a6,6,0,0,0-10,.24Z"/><path class="cls-1" d="M34.59,45.16a13.76,13.76,0,0,0,2.57-1.44l-8.45-3.61-8.49,3.56a15.12,15.12,0,0,0,2.6,1.47l5.93-2.94Z"/><path class="cls-1" d="M40.1,41,28.71,36.16,17.29,41a14.47,14.47,0,0,0,2,2l9.47-4.7L38.12,43A16,16,0,0,0,40.1,41Z"/><path class="cls-1" d="M28.71,44.05,24.6,45.78a14.78,14.78,0,0,0,4.13.59,15.14,15.14,0,0,0,4.06-.57Z"/><path class="cls-1" d="M28.86,18.62c4,0,8,2.47,11.5,7L42,25a14.79,14.79,0,0,0-26.83.8l1.66.51C20.23,21.34,24.5,18.62,28.86,18.62Z"/><path class="cls-1" d="M28.86,19.72c-3.91,0-7.78,2.44-11,6.9l1.95.6c2.56-3.65,5.72-5.67,9-5.67,2.94,0,6,1.85,8.55,5.2L39.29,26C36.08,21.94,32.4,19.72,28.86,19.72Z"/><path class="cls-1" d="M28.79,22.37c-2.9,0-5.76,1.82-8.13,5.11l1.7.52a7.29,7.29,0,0,1,12.54-.31l1.64-.64C34.15,24,31.42,22.37,28.79,22.37Z"/></g></g></svg>